<?xml version="1.0" encoding="UTF-8" standalone="no"?>
<svg
   xmlns:dc="http://purl.org/dc/elements/1.1/"
   xmlns:cc="http://creativecommons.org/ns#"
   xmlns:rdf="http://www.w3.org/1999/02/22-rdf-syntax-ns#"
   xmlns:svg="http://www.w3.org/2000/svg"
   xmlns="http://www.w3.org/2000/svg"
   xmlns:sodipodi="http://sodipodi.sourceforge.net/DTD/sodipodi-0.dtd"
   xmlns:inkscape="http://www.inkscape.org/namespaces/inkscape"
   width="452"
   height="452"
   viewBox="0 0 452 452"
   id="svg2"
   version="1.1"
   inkscape:version="0.48.2 r9819"
   sodipodi:docname="Ouroboros-simple.svg">
  <metadata
     id="metadata18">
    <rdf:RDF>
      <cc:Work
         rdf:about="">
        <dc:format>image/svg+xml</dc:format>
        <dc:type
           rdf:resource="http://purl.org/dc/dcmitype/StillImage" />
        <dc:title>Simple ouroboros depiction (glyph &quot;oroboros&quot; from toa267 public domain Fnord-Podge font)</dc:title>
      </cc:Work>
    </rdf:RDF>
  </metadata>
  <defs
     id="defs16" />
  <sodipodi:namedview
     pagecolor="#ffffff"
     bordercolor="#666666"
     borderopacity="1"
     objecttolerance="10"
     gridtolerance="10"
     guidetolerance="10"
     inkscape:pageopacity="0"
     inkscape:pageshadow="2"
     inkscape:window-width="1280"
     inkscape:window-height="962"
     id="namedview14"
     showgrid="false"
     fit-margin-top="10"
     fit-margin-left="10"
     fit-margin-right="10"
     fit-margin-bottom="10"
     inkscape:zoom="0.54357394"
     inkscape:cx="113.35565"
     inkscape:cy="226.5"
     inkscape:window-x="-8"
     inkscape:window-y="-8"
     inkscape:window-maximized="1"
     inkscape:current-layer="svg2" />
  <title
     id="title4">Simple ouroboros depiction (glyph &quot;oroboros&quot; from toa267 public domain Fnord-Podge font)</title>
  <g
     transform="matrix(0.432,0,0,-0.432,10,442)"
     id="g6">
    <path
       d="m 604,24 c 231,47 396,246 396,476 0,276 -224,500 -500,500 C 224,1000 0,776 0,500 0,283 146,92 358,30 c 5,-1 7,-2 12,-2 18,0 33,-13 53,-13 10,0 35,3 45,3 30,0 74,-18 104,-18 13,0 28,10 32,24 z M 342,136 C 192,198 95,341 95,500 95,724 276,905 500,905 724,905 905,724 905,500 905,328 795,176 632,120 c 1,18 -22,29 -48,29 -14,0 -27,-5 -34,-5 -10,0 -28,11 -46,11 -20,0 -54,-8 -84,-13 -30,-5 -63,-12 -78,-6 z"
       id="path8"
       inkscape:connector-curvature="0"
       style="fill:#ebebeb" />
    <path
       d="m 604,24 c 231,47 396,246 396,476 0,276 -224,500 -500,500 C 224,1000 0,776 0,500 0,283 146,92 358,30 c 5,-1 7,-2 12,-2 18,0 33,-13 53,-13 10,0 35,3 45,3 30,0 74,-18 104,-18 13,0 28,10 32,24 z M 357,43 C 152,104 12,290 12,500 12,770 230,988 500,988 770,988 988,770 988,500 988,269 818,72 585,32 c -36,-6 -86,16 -86,23 0,5 21,12 25,14 C 763,81 950,270 950,500 950,749 749,950 500,950 251,950 50,749 50,500 50,346 133,202 268,123 c 13,-6 37,-7 47,-7 10,0 46,2 56,7 10,5 49,10 69,15 20,5 47,9 62,9 25,0 48,-15 56,-14 v 2 c 0,3 9,5 27,5 20,0 41,-7 39,-23 l -24,-9 C 580,102 571,103 561,99 536,91 530,80 507,70 484,60 450,60 450,55 c 0,-3 15,-4 25,-5 25,-3 50,-23 80,-26 20,-2 25,-1 39,0 -1,-5 -9,-15 -22,-15 -32,0 -72,19 -99,19 -15,0 -26,-6 -41,-6 -22,0 -47,18 -67,30 -5,3 -10,6 -15,6 -5,0 -5,-1 -5,-2 0,-4 20,-10 20,-13 0,-2 -3,-1 -8,0 z M 572,92 C 772,127 917,299 917,500 917,730 730,917 500,917 270,917 83,730 83,500 83,337 183,189 337,125 313,122 285,124 272,130 139,208 58,348 58,500 58,744 256,942 500,942 744,942 942,744 942,500 942,280 767,97 539,78 c 5,2 13,12 33,14 z M 342,136 C 192,198 95,341 95,500 95,724 276,905 500,905 724,905 905,724 905,500 905,328 795,176 632,120 c 1,18 -22,29 -48,29 -14,0 -27,-5 -34,-5 -10,0 -28,11 -46,11 -20,0 -54,-8 -84,-13 -30,-5 -63,-12 -78,-6 z m 104,-16 c 0,-2 4,-3 14,-3 15,-1 18,-13 30,-13 21,0 30,9 37,9 l 10,-2 1,2 c -10,7 -25,17 -35,17 -5,0 -10,-1 -20,-4 -15,-4 -37,-4 -37,-6 z m 134,7 c 18,-3 17,-9 27,-9 3,0 5,2 5,5 0,3 -12,6 -31,7 l -1,-3 z"
       id="path10"
       inkscape:connector-curvature="0" />
    <path
       d="m 472,119 15,3 c 0,-5 3,-10 5,-13 -9,0 -15,8 -20,10 z m 50,-2 -17,-7 c 1,5 1,10 0,15 8,-2 12,-5 17,-8 z"
       id="path12"
       inkscape:connector-curvature="0"
       style="fill:#ffffff" />
  </g>
  <g
     transform="matrix(0.9359866,0,0,0.9359866,43.29954,449.43883)"
     id="g8580">
    <g
       id="g5226">
      <path
         inkscape:connector-curvature="0"
         sodipodi:nodetypes="cc"
         id="path5106"
         d="m 119.69779,-275.6307 0,48.84074"
         style="fill:none;stroke:#000000;stroke-width:3.20517421;stroke-linecap:round;stroke-linejoin:miter;stroke-miterlimit:4;stroke-opacity:1;stroke-dasharray:none" />
      <path
         inkscape:connector-curvature="0"
         style="fill:none;stroke:#000000;stroke-width:3.20517421;stroke-linecap:round;stroke-linejoin:miter;stroke-miterlimit:4;stroke-opacity:1;stroke-dasharray:none"
         d="m 126.56599,-275.6307 0,48.84074"
         id="path5130"
         sodipodi:nodetypes="cc" />
      <path
         inkscape:connector-curvature="0"
         sodipodi:nodetypes="cc"
         id="path5132"
         d="m 269.88289,-273.49392 0,48.84074"
         style="fill:none;stroke:#000000;stroke-width:3.20517421;stroke-linecap:round;stroke-linejoin:miter;stroke-miterlimit:4;stroke-opacity:1;stroke-dasharray:none" />
      <path
         inkscape:connector-curvature="0"
         style="fill:none;stroke:#000000;stroke-width:3.20517421;stroke-linecap:round;stroke-linejoin:miter;stroke-miterlimit:4;stroke-opacity:1;stroke-dasharray:none"
         d="m 255.92727,-191.68568 -42.29732,24.42038"
         id="path5134"
         sodipodi:nodetypes="cc" />
      <path
         inkscape:connector-curvature="0"
         sodipodi:nodetypes="cc"
         id="path5136"
         d="m 252.26421,-198.85916 -42.29732,24.42038"
         style="fill:none;stroke:#000000;stroke-width:3.20517421;stroke-linecap:round;stroke-linejoin:miter;stroke-miterlimit:4;stroke-opacity:1;stroke-dasharray:none" />
      <path
         inkscape:connector-curvature="0"
         sodipodi:nodetypes="cc"
         id="path5138"
         d="m 179.6136,-325.2346 -42.29732,24.42038"
         style="fill:none;stroke:#000000;stroke-width:3.20517421;stroke-linecap:round;stroke-linejoin:miter;stroke-miterlimit:4;stroke-opacity:1;stroke-dasharray:none" />
      <path
         inkscape:connector-curvature="0"
         style="fill:none;stroke:#000000;stroke-width:3.20517421;stroke-linecap:round;stroke-linejoin:miter;stroke-miterlimit:4;stroke-opacity:1;stroke-dasharray:none"
         d="m 209.9668,-325.2346 42.29732,24.42038"
         id="path5140"
         sodipodi:nodetypes="cc" />
      <path
         inkscape:connector-curvature="0"
         sodipodi:nodetypes="cc"
         id="path5142"
         d="m 214.24036,-331.64494 42.29732,24.42038"
         style="fill:none;stroke:#000000;stroke-width:3.20517421;stroke-linecap:round;stroke-linejoin:miter;stroke-miterlimit:4;stroke-opacity:1;stroke-dasharray:none" />
      <path
         inkscape:connector-curvature="0"
         sodipodi:nodetypes="cc"
         id="path5144"
         d="m 137.011,-197.79094 42.29732,24.42038"
         style="fill:none;stroke:#000000;stroke-width:3.20517421;stroke-linecap:round;stroke-linejoin:miter;stroke-miterlimit:4;stroke-opacity:1;stroke-dasharray:none" />
      <path
         inkscape:connector-curvature="0"
         style="fill:none;stroke:#000000;stroke-width:3.20517421;stroke-linecap:round;stroke-linejoin:miter;stroke-miterlimit:4;stroke-opacity:1;stroke-dasharray:none"
         d="M 108.79458,-197.79094 84.812493,-182.5282"
         id="path5148"
         sodipodi:nodetypes="cc" />
      <path
         inkscape:connector-curvature="0"
         sodipodi:nodetypes="cc"
         id="path5152"
         d="m 283.53306,-197.79094 23.98206,15.26274"
         style="fill:none;stroke:#000000;stroke-width:3.20517421;stroke-linecap:round;stroke-linejoin:miter;stroke-miterlimit:4;stroke-opacity:1;stroke-dasharray:none" />
      <path
         inkscape:connector-curvature="0"
         style="fill:none;stroke:#000000;stroke-width:3.20517421;stroke-linecap:round;stroke-linejoin:miter;stroke-miterlimit:4;stroke-opacity:1;stroke-dasharray:none"
         d="m 283.53306,-302.18788 23.98206,-15.26274"
         id="path5154"
         sodipodi:nodetypes="cc" />
      <path
         inkscape:connector-curvature="0"
         sodipodi:nodetypes="cc"
         id="path5156"
         d="M 108.79458,-302.18788 84.812496,-317.45062"
         style="fill:none;stroke:#000000;stroke-width:3.20517421;stroke-linecap:round;stroke-linejoin:miter;stroke-miterlimit:4;stroke-opacity:1;stroke-dasharray:none" />
      <path
         inkscape:connector-curvature="0"
         style="fill:none;stroke:#000000;stroke-width:3.20517421;stroke-linecap:round;stroke-linejoin:miter;stroke-miterlimit:4;stroke-opacity:1;stroke-dasharray:none"
         d="m 194.48519,-378.65416 0,26.70978"
         id="path5160"
         sodipodi:nodetypes="cc" />
      <path
         inkscape:connector-curvature="0"
         sodipodi:nodetypes="cc"
         id="path5162"
         d="m 196.62197,-147.88165 0,26.70978"
         style="fill:none;stroke:#000000;stroke-width:3.20517421;stroke-linecap:round;stroke-linejoin:miter;stroke-miterlimit:4;stroke-opacity:1;stroke-dasharray:none" />
    </g>
    <g
       id="g5339">
      <text
         id="text5102"
         y="-194.73825"
         x="109.92966"
         style="font-size:42.73565674px;font-style:normal;font-weight:normal;fill:#000000;fill-opacity:1;stroke:none;font-family:Bitstream Vera Sans"
         xml:space="preserve"><tspan
           y="-194.73825"
           x="109.92966"
           id="tspan5104"
           sodipodi:role="line">c</tspan></text>
      <text
         xml:space="preserve"
         style="font-size:42.73565674px;font-style:normal;font-weight:normal;fill:#000000;fill-opacity:1;stroke:none;font-family:Bitstream Vera Sans"
         x="109.92966"
         y="-282.34622"
         id="text5110"><tspan
           sodipodi:role="line"
           id="tspan5112"
           x="109.92966"
           y="-282.34622">c</tspan></text>
      <text
         id="text5114"
         y="-282.34622"
         x="257.36749"
         style="font-size:42.73565674px;font-style:normal;font-weight:normal;fill:#000000;fill-opacity:1;stroke:none;font-family:Bitstream Vera Sans"
         xml:space="preserve"><tspan
           y="-282.34622"
           x="257.36749"
           id="tspan5116"
           sodipodi:role="line">c</tspan></text>
      <text
         xml:space="preserve"
         style="font-size:42.73565674px;font-style:normal;font-weight:normal;fill:#000000;fill-opacity:1;stroke:none;font-family:Bitstream Vera Sans"
         x="255.23071"
         y="-192.60147"
         id="text5118"><tspan
           sodipodi:role="line"
           id="tspan5120"
           x="255.23071"
           y="-192.60147">c</tspan></text>
      <text
         id="text5122"
         y="-154.13943"
         x="182.5802"
         style="font-size:42.73565674px;font-style:normal;font-weight:normal;fill:#000000;fill-opacity:1;stroke:none;font-family:Bitstream Vera Sans"
         xml:space="preserve"><tspan
           y="-154.13943"
           x="182.5802"
           id="tspan5124"
           sodipodi:role="line">c</tspan></text>
      <text
         xml:space="preserve"
         style="font-size:42.73565674px;font-style:normal;font-weight:normal;fill:#000000;fill-opacity:1;stroke:none;font-family:Bitstream Vera Sans"
         x="182.5802"
         y="-322.94522"
         id="text5126"><tspan
           sodipodi:role="line"
           id="tspan5128"
           x="182.5802"
           y="-322.94522">c</tspan></text>
      <text
         id="text5168"
         y="-310.12436"
         x="58.646931"
         style="font-size:42.73565674px;font-style:normal;font-weight:normal;fill:#000000;fill-opacity:1;stroke:none;font-family:Bitstream Vera Sans"
         xml:space="preserve"><tspan
           style="font-size:32px"
           y="-310.12436"
           x="58.646931"
           id="tspan5170"
           sodipodi:role="line">H</tspan></text>
      <text
         xml:space="preserve"
         style="font-size:42.73565674px;font-style:normal;font-weight:normal;fill:#000000;fill-opacity:1;stroke:none;font-family:Bitstream Vera Sans"
         x="58.646931"
         y="-171.23349"
         id="text5172"><tspan
           sodipodi:role="line"
           id="tspan5174"
           x="58.646931"
           y="-171.23349"
           style="font-size:32px">H</tspan></text>
      <text
         id="text5176"
         y="-171.23349"
         x="306.51373"
         style="font-size:42.73565674px;font-style:normal;font-weight:normal;fill:#000000;fill-opacity:1;stroke:none;font-family:Bitstream Vera Sans"
         xml:space="preserve"><tspan
           style="font-size:32px"
           y="-171.23349"
           x="306.51373"
           id="tspan5178"
           sodipodi:role="line">H</tspan></text>
      <text
         xml:space="preserve"
         style="font-size:42.73565674px;font-style:normal;font-weight:normal;fill:#000000;fill-opacity:1;stroke:none;font-family:Bitstream Vera Sans"
         x="308.65051"
         y="-305.8508"
         id="text5180"><tspan
           sodipodi:role="line"
           id="tspan5182"
           x="308.65051"
           y="-305.8508"
           style="font-size:32px">H</tspan></text>
      <text
         id="text5184"
         y="-380.63809"
         x="182.58051"
         style="font-size:42.73565674px;font-style:normal;font-weight:normal;fill:#000000;fill-opacity:1;stroke:none;font-family:Bitstream Vera Sans"
         xml:space="preserve"><tspan
           style="font-size:32px"
           y="-380.63809"
           x="182.58051"
           id="tspan5186"
           sodipodi:role="line">H</tspan></text>
      <text
         xml:space="preserve"
         style="font-size:42.73565674px;font-style:normal;font-weight:normal;fill:#000000;fill-opacity:1;stroke:none;font-family:Bitstream Vera Sans"
         x="184.71729"
         y="-97.481827"
         id="text5188"><tspan
           sodipodi:role="line"
           id="tspan5190"
           x="184.71729"
           y="-97.481827"
           style="font-size:32px">H</tspan></text>
    </g>
  </g>
</svg>
